HIERARCHY
ROOT hip
{
  OFFSET 0.0 0.0 0.0
  CHANNELS 6 Xposition Yposition Zposition Zrotation Yrotation Xrotation
  JOINT abdomen
  {
    OFFSET 0.0 20.6881 -0.73152
    CHANNELS 3 Zrotation Xrotation Yrotation
    JOINT chest
    {
      OFFSET 0.0 11.7043 -0.48768
      CHANNELS 3 Zrotation Xrotation Yrotation
      JOINT neck
      {
        OFFSET 0.0 22.1894 -2.19456
        CHANNELS 3 Zrotation Xrotation Yrotation
        JOINT head
        {
          OFFSET -0.24384 7.07133 1.2192
          CHANNELS 3 Zrotation Xrotation Yrotation
          JOINT leftEye
          {
            OFFSET 4.14528 8.04674 8.04672
            CHANNELS 3 Zrotation Xrotation Yrotation
            End Site
            {
              OFFSET 1.0 0.0 0.0
            }
          }
          JOINT rightEye
          {
            OFFSET -3.6576 8.04674 8.04672
            CHANNELS 3 Zrotation Xrotation Yrotation
            End Site
            {
              OFFSET 1.0 0.0 0.0
            }
          }
        }
      }
      JOINT rCollar
      {
        OFFSET -2.68224 19.2634 -4.8768
        CHANNELS 3 Zrotation Xrotation Yrotation
        JOINT rShldr
        {
          OFFSET -8.77824 -1.95073 1.46304
          CHANNELS 3 Zrotation Xrotation Yrotation
          JOINT rForeArm
          {
            OFFSET -28.1742 -1.7115 0.48768
            CHANNELS 3 Zrotation Xrotation Yrotation
            JOINT rHand
            {
              OFFSET -22.5879 0.773209 7.07136
              CHANNELS 3 Zrotation Xrotation Yrotation
              JOINT rThumb1
              {
                OFFSET -1.2192 -0.487915 3.41376
                CHANNELS 3 Zrotation Xrotation Yrotation
                JOINT rThumb2
                {
                  OFFSET -3.37035 -0.52449 3.41376
                  CHANNELS 3 Zrotation Xrotation Yrotation
                  End Site
                  {
                    OFFSET -1.78271 -1.18214 1.43049
                  }
                }
              }
              JOINT rIndex1
              {
                OFFSET -7.75947 0.938293 5.60832
                CHANNELS 3 Zrotation Xrotation Yrotation
                JOINT rIndex2
                {
                  OFFSET -2.54057 -0.884171 1.56538
                  CHANNELS 3 Zrotation Xrotation Yrotation
                  End Site
                  {
                    OFFSET -1.62519 -0.234802 1.16502
                  }
                }
              }
              JOINT rMid1
              {
                OFFSET -8.24714 1.18213 3.41376
                CHANNELS 3 Zrotation Xrotation Yrotation
                JOINT rMid2
                {
                  OFFSET -3.10165 -0.590103 1.0647
                  CHANNELS 3 Zrotation Xrotation Yrotation
                  End Site
                  {
                    OFFSET -2.48547 -0.328903 0.83742
                  }
                }
              }
              JOINT rRing1
              {
                OFFSET -8.82822 0.546677 1.51678
                CHANNELS 3 Zrotation Xrotation Yrotation
                JOINT rRing2
                {
                  OFFSET -2.60934 -0.819778 -0.0198488
                  CHANNELS 3 Zrotation Xrotation Yrotation
                  End Site
                  {
                    OFFSET -2.33842 -0.294052 0.168128
                  }
                }
              }
              JOINT rPinky1
              {
                OFFSET -8.27202 -0.0477905 -0.4584
                CHANNELS 3 Zrotation Xrotation Yrotation
                JOINT rPinky2
                {
                  OFFSET -1.82734 -0.647385 -0.700984
                  CHANNELS 3 Zrotation Xrotation Yrotation
                  End Site
                  {
                    OFFSET -1.69225 -0.51767 -0.607171
                  }
                }
              }
            }
          }
        }
      }
      JOINT lCollar
      {
        OFFSET 2.68224 19.2634 -4.8768
        CHANNELS 3 Zrotation Xrotation Yrotation
        JOINT lShldr
        {
          OFFSET 8.77824 -1.95073 1.46304
          CHANNELS 3 Zrotation Xrotation Yrotation
          JOINT lForeArm
          {
            OFFSET 28.1742 -1.7115 0.48768
            CHANNELS 3 Zrotation Xrotation Yrotation
            JOINT lHand
            {
              OFFSET 22.5879 0.773209 7.07136
              CHANNELS 3 Zrotation Xrotation Yrotation
              JOINT lThumb1
              {
                OFFSET 1.2192 -0.487915 3.41376
                CHANNELS 3 Zrotation Xrotation Yrotation
                JOINT lThumb2
                {
                  OFFSET 3.37035 -0.52449 3.41376
                  CHANNELS 3 Zrotation Xrotation Yrotation
                  End Site
                  {
                    OFFSET 1.78271 -1.18214 1.43049
                  }
                }
              }
              JOINT lIndex1
              {
                OFFSET 7.75947 0.938293 5.60832
                CHANNELS 3 Zrotation Xrotation Yrotation
                JOINT lIndex2
                {
                  OFFSET 2.54057 -0.884171 1.56538
                  CHANNELS 3 Zrotation Xrotation Yrotation
                  End Site
                  {
                    OFFSET 1.62519 -0.234802 1.16502
                  }
                }
              }
              JOINT lMid1
              {
                OFFSET 8.24714 1.18213 3.41376
                CHANNELS 3 Zrotation Xrotation Yrotation
                JOINT lMid2
                {
                  OFFSET 3.10165 -0.590103 1.0647
                  CHANNELS 3 Zrotation Xrotation Yrotation
                  End Site
                  {
                    OFFSET 2.48547 -0.328903 0.83742
                  }
                }
              }
              JOINT lRing1
              {
                OFFSET 8.82822 0.546677 1.51678
                CHANNELS 3 Zrotation Xrotation Yrotation
                JOINT lRing2
                {
                  OFFSET 2.60934 -0.819778 -0.0198488
                  CHANNELS 3 Zrotation Xrotation Yrotation
                  End Site
                  {
                    OFFSET 2.33842 -0.294052 0.168128
                  }
                }
              }
              JOINT lPinky1
              {
                OFFSET 8.27202 -0.0477905 -0.4584
                CHANNELS 3 Zrotation Xrotation Yrotation
                JOINT lPinky2
                {
                  OFFSET 1.82734 -0.647385 -0.700984
                  CHANNELS 3 Zrotation Xrotation Yrotation
                  End Site
                  {
                    OFFSET 1.69225 -0.51767 -0.607171
                  }
                }
              }
            }
          }
        }
      }
    }
  }
  JOINT rButtock
  {
    OFFSET -8.77824 4.35084 1.2192
    CHANNELS 3 Zrotation Xrotation Yrotation
    JOINT rThigh
    {
      OFFSET 0.0 -1.70687 -2.19456
      CHANNELS 3 Zrotation Xrotation Yrotation
      JOINT rShin
      {
        OFFSET 0.0 -36.8199 0.73152
        CHANNELS 3 Zrotation Xrotation Yrotation
        JOINT rFoot
        {
          OFFSET 0.73152 -45.1104 -5.12064
          CHANNELS 3 Zrotation Xrotation Yrotation
          End Site
          {
            OFFSET -1.1221 -3.69964 12.103
          }
        }
      }
    }
  }
  JOINT lButtock
  {
    OFFSET 8.77824 4.35084 1.2192
    CHANNELS 3 Zrotation Xrotation Yrotation
    JOINT lThigh
    {
      OFFSET 0.0 -1.70687 -2.19456
      CHANNELS 3 Zrotation Xrotation Yrotation
      JOINT lShin
      {
        OFFSET 0.0 -36.8199 0.73152
        CHANNELS 3 Zrotation Xrotation Yrotation
        JOINT lFoot
        {
          OFFSET -0.73152 -45.1104 -5.12064
          CHANNELS 3 Zrotation Xrotation Yrotation
          End Site
          {
            OFFSET 1.1221 -3.69964 12.103
          }
        }
      }
    }
  }
}
MOTION
Frames: 4
Frame Time: 0.00833333
3.06636 83.9999 -36.8715 1.8475 6.0557 3.741 1.30277 4.66451 -18.1371 10.9433 -2.39509 -4.85961 12.1877 -4.1505 3.86933 -16.6704 -4.46596 2.75891 -0.0 0.0 0.0 -0.0 0.0 0.0 2.74606e-14 6.24188e-14 1.22001e-13 57.7817 -13.1678 -31.2179 -14.8759 -7.68342 27.3334 -0.0187142 -3.91382 -0.550914 6.51299e-11 4.82812e-10 -3.46156e-11 1.1083e-10 8.32558e-10 -5.93576e-11 6.51303e-11 4.82816e-10 -3.4615e-11 7.73091 5.47488 0.417314 6.51316e-11 4.82813e-10 -3.46158e-11 2.90554 0.965183 0.102902 6.51385e-11 4.82813e-10 -3.46169e-11 10.2786 0.731801 0.0259123 6.51239e-11 4.82815e-10 -3.46112e-11 2.22167 -0.733487 -0.20892 2.74027e-14 6.24177e-14 1.21861e-13 -51.3502 27.754 -44.2361 21.5417 -15.084 -42.5686 0.469892 -19.0993 2.78958 -3.64534e-11 5.01123e-10 -7.69448e-11 -6.11208e-11 8.60346e-10 -1.34077e-10 -3.64587e-11 5.01125e-10 -7.6934e-11 -7.73091 5.47488 -0.417314 -3.64536e-11 5.01121e-10 -7.69448e-11 -2.90554 0.965183 -0.102902 -3.64593e-11 5.01116e-10 -7.69418e-11 -10.2786 0.731801 -0.0259123 -3.64516e-11 5.01126e-10 -7.69507e-11 -2.22167 -0.733487 0.20892 -2.03217e-16 0.0 -3.88251e-19 -0.751411 -27.694 -3.43358 -0.26336 33.6004 0.165346 -2.51557 -0.192878 -20.0752 2.03217e-16 0.0 3.88251e-19 3.39182 -2.19686 -0.218567 0.563653 47.6272 -0.716968 -1.41368 14.3683 11.7735
2.85294 84.0761 -35.9019 1.5203 6.4075 3.4439 1.48524 4.74797 -17.7784 10.8072 -2.4302 -4.7505 12.1341 -4.07543 3.83826 -16.7121 -4.24794 2.76095 -0.0 0.0 0.0 -0.0 0.0 0.0 1.17794e-14 5.75469e-14 8.26606e-14 59.7879 -12.0981 -30.3081 -14.9113 -7.71383 27.4061 -0.0232448 -4.35047 -0.612612 -1.74892e-10 1.07426e-10 -2.83987e-10 -3.03071e-10 1.84139e-10 -4.91966e-10 -1.74891e-10 1.07426e-10 -2.83984e-10 7.73091 5.47488 0.417314 -1.7489e-10 1.07426e-10 -2.83987e-10 2.90554 0.965183 0.102902 -1.74881e-10 1.07427e-10 -2.83988e-10 10.2786 0.731801 0.0259123 -1.74897e-10 1.07427e-10 -2.83983e-10 2.22167 -0.733487 -0.20892 1.16566e-14 5.75487e-14 8.24584e-14 -51.6793 29.2568 -43.3886 21.5686 -15.1228 -42.6394 0.456402 -18.8412 2.74886 4.5771e-10 -5.33764e-10 -2.39331e-10 7.95051e-10 -8.87511e-10 -4.07472e-10 4.57706e-10 -5.33766e-10 -2.39323e-10 -7.73091 5.47488 -0.417314 4.5771e-10 -5.33768e-10 -2.39333e-10 -2.90554 0.965183 -0.102902 4.57703e-10 -5.33769e-10 -2.39329e-10 -10.2786 0.731801 -0.0259123 4.57715e-10 -5.33764e-10 -2.39339e-10 -2.22167 -0.733487 0.20892 -2.03217e-16 0.0 -3.88251e-19 -0.141901 -26.532 -3.35425 -0.255013 33.2925 0.170387 -2.6791 -0.570995 -20.6005 2.03217e-16 0.0 3.88251e-19 4.11088 -3.4852 -0.269144 0.617001 49.2633 -0.777984 -1.20952 13.3265 12.0542
2.64454 84.1409 -34.9315 1.1875 6.7353 3.147 1.69473 4.81354 -17.3628 10.6624 -2.46088 -4.62613 12.0584 -3.99565 3.79514 -16.7413 -4.02406 2.74878 -0.0 0.0 0.0 -0.0 0.0 0.0 -1.50772e-15 4.92957e-14 7.96133e-14 61.7477 -10.9607 -29.3197 -14.9319 -7.73153 27.4486 -0.0282196 -4.78972 -0.674739 -2.74851e-10 5.97976e-11 -2.70694e-10 -4.76239e-10 1.02532e-10 -4.69098e-10 -2.74849e-10 5.97948e-11 -2.70691e-10 7.73091 5.47488 0.417314 -2.74849e-10 5.97967e-11 -2.70694e-10 2.90554 0.965183 0.102902 -2.74839e-10 5.97978e-11 -2.70695e-10 10.2786 0.731801 0.0259123 -2.74854e-10 5.97972e-11 -2.70691e-10 2.22167 -0.733487 -0.20892 -1.67296e-15 4.93005e-14 7.93648e-14 -52.1043 30.727 -42.4642 21.5774 -15.1355 -42.6626 0.441651 -18.5526 2.70352 5.53677e-10 -1.43659e-09 -3.16084e-10 9.62012e-10 -2.43674e-09 -5.3857e-10 5.53674e-10 -1.43659e-09 -3.16077e-10 -7.73091 5.47488 -0.417314 5.53678e-10 -1.43659e-09 -3.16087e-10 -2.90554 0.965183 -0.102902 5.53671e-10 -1.43659e-09 -3.16083e-10 -10.2786 0.731801 -0.0259123 5.53685e-10 -1.43659e-09 -3.16093e-10 -2.22167 -0.733487 0.20892 -2.03217e-16 0.0 -3.88251e-19 0.466737 -25.3918 -3.31419 -0.246541 32.9776 0.177779 -2.84582 -0.962483 -21.0472 2.03217e-16 0.0 3.88251e-19 4.8206 -4.78214 -0.310879 0.669203 50.7691 -0.840293 -0.983892 12.2942 12.2083
2.43999 84.1923 -33.9661 0.8421 7.0252 2.8585 1.94197 4.85659 -16.8868 10.509 -2.48416 -4.48578 11.9524 -3.90619 3.7356 -16.753 -3.79456 2.71775 -0.0 0.0 0.0 -0.0 0.0 0.0 -1.39128e-14 3.56893e-14 1.47268e-13 63.6473 -9.77151 -28.2514 -14.936 -7.73504 27.4572 -0.0335816 -5.21799 -0.735402 -1.44519e-10 6.15009e-10 2.06575e-10 -2.53956e-10 1.06351e-09 3.58347e-10 -1.44515e-10 6.15006e-10 2.06575e-10 7.73091 5.47488 0.417314 -1.44517e-10 6.15008e-10 2.06577e-10 2.90554 0.965183 0.102902 -1.44508e-10 6.15009e-10 2.06574e-10 10.2786 0.731801 0.0259123 -1.44521e-10 6.15008e-10 2.06579e-10 2.22167 -0.733487 -0.20892 -1.40897e-14 3.56983e-14 1.46994e-13 -52.6384 32.1595 -41.4522 21.5668 -15.12 -42.635 0.424438 -18.2056 2.64928 -2.97347e-11 -2.30024e-09 -2.68625e-10 -4.65415e-11 -3.96822e-09 -4.64757e-10 -2.97381e-11 -2.30025e-09 -2.68617e-10 -7.73091 5.47488 -0.417314 -2.97346e-11 -2.30025e-09 -2.68629e-10 -2.90554 0.965183 -0.102902 -2.97409e-11 -2.30025e-09 -2.68627e-10 -10.2786 0.731801 -0.0259123 -2.97258e-11 -2.30024e-09 -2.68634e-10 -2.22167 -0.733487 0.20892 -2.03217e-16 0.0 -3.88251e-19 1.08066 -24.2725 -3.33147 -0.237707 32.6481 0.187814 -3.01468 -1.3763 -21.3952 2.03217e-16 0.0 3.88251e-19 5.53268 -6.09121 -0.345225 0.718999 52.1401 -0.903827 -0.738783 11.274 12.1706
